<?xml version="1.0" encoding="UTF-8" standalone="no"?>
<!-- Created with Inkscape (http://www.inkscape.org/) -->

<svg
   width="186.03516mm"
   height="76.894539mm"
   viewBox="0 0 186.03516 76.894539"
   version="1.1"
   id="svg115108"
   inkscape:version="1.1.1 (3bf5ae0d25, 2021-09-20)"
   sodipodi:docname="logos.svg"
   xmlns:inkscape="http://www.inkscape.org/namespaces/inkscape"
   xmlns:sodipodi="http://sodipodi.sourceforge.net/DTD/sodipodi-0.dtd"
   xmlns="http://www.w3.org/2000/svg"
   xmlns:svg="http://www.w3.org/2000/svg">
  <sodipodi:namedview
     id="namedview115110"
     pagecolor="#c7e8f5"
     bordercolor="#666666"
     borderopacity="1.0"
     inkscape:pageshadow="2"
     inkscape:pageopacity="0"
     inkscape:pagecheckerboard="0"
     inkscape:document-units="mm"
     showgrid="false"
     inkscape:snap-global="false"
     inkscape:zoom="0.32"
     inkscape:cx="1315.625"
     inkscape:cy="-223.4375"
     inkscape:window-width="1920"
     inkscape:window-height="1017"
     inkscape:window-x="-8"
     inkscape:window-y="-8"
     inkscape:window-maximized="1"
     inkscape:current-layer="layer1"
     inkscape:showpageshadow="2"
     inkscape:deskcolor="#d1d1d1" />
  <defs
     id="defs115105" />
  <g
     inkscape:label="Capa 1"
     inkscape:groupmode="layer"
     id="layer1"
     transform="translate(-732.10207,-36.049476)">
    <rect
       style="fill:none;fill-opacity:1;stroke:none;stroke-width:1.845;stroke-linecap:round;stroke-miterlimit:4;stroke-dasharray:none;stop-color:#000000"
       id="rect6845-7-1-2-6-4"
       width="186.03516"
       height="76.894531"
       x="732.10211"
       y="36.049477"
       inkscape:export-filename="logo_color_transparent.png"
       inkscape:export-xdpi="96"
       inkscape:export-ydpi="96" />
    <path
       inkscape:connector-curvature="0"
       id="path2492-4-2-5-2-3-1-5-0-1-5"
       style="fill:#aed581;fill-opacity:1;stroke:#ffb30f;stroke-width:0;stroke-miterlimit:4;stroke-dasharray:none;stroke-opacity:1"
       d="M 766.14428,72.473789 V 58.476466 c -1.28797,1.979713 -1.75944,2.381228 -2.07742,1.85226 -0.0672,-0.111826 0.21251,-1.248561 0.62154,-2.526176 0.74368,-2.32297 0.74375,-2.322904 0.27745,-3.226518 -0.4421,-0.856775 -0.48493,-0.88626 -0.82604,-0.568909 -0.28121,0.261665 -0.58232,0.307429 -1.37877,0.210461 -1.00378,-0.122215 -1.03059,-0.111062 -1.81609,0.739067 -0.43853,0.474615 -1.06208,0.982835 -1.38552,1.129532 -0.68236,0.309512 -0.59492,0.361234 0.98458,0.582795 1.1717,0.164363 1.17179,0.164534 0.19165,0.46659 -0.91734,0.282709 -1.01784,0.381346 -1.56825,1.541274 -0.32344,0.681646 -0.67774,1.329435 -0.78727,1.439629 -0.13258,0.133375 -0.54191,0.03179 -1.22438,-0.304035 -1.0684,-0.52567 -1.43946,-0.486953 -2.00119,0.208898 -0.37262,0.461566 -1.18019,2.931803 -1.18103,3.61339 -7.2e-4,0.583425 -7.2e-4,0.583447 1.32237,0.477787 0.72773,-0.0581 1.43348,-0.0638 1.56825,-0.0126 0.39838,0.151565 0.28007,1.357348 -0.20559,2.095414 -0.41558,0.631591 -0.52971,0.684884 -1.47046,0.684884 -1.01997,0 -1.02001,-6.7e-5 -1.01965,0.775568 2.2e-4,0.613443 0.13227,0.902362 0.63135,1.381638 0.54312,0.521618 0.74115,0.591695 1.42124,0.50376 0.43458,-0.05617 0.96648,-0.02668 1.18212,0.06536 0.37661,0.160821 0.32559,0.210305 -0.27724,0.269341 -0.45698,0.04475 -0.44438,0.426961 0.0286,0.872055 1.04224,0.980931 1.83171,0.696865 2.0687,-0.744216 0.14833,-0.90191 0.15394,-0.907194 1.01769,-0.970802 0.586,-0.04313 0.95474,-0.190594 1.13378,-0.453378 0.27967,-0.410489 0.83105,-0.532881 0.83105,-0.184489 0,0.112707 -0.39685,0.595875 -0.88201,1.073794 -0.699,0.688538 -0.88202,1.007838 -0.88202,1.538591 0,0.490229 -0.16177,0.800378 -0.80732,1.46627 z"
       inkscape:export-xdpi="96"
       inkscape:export-ydpi="96"
       inkscape:export-filename="nomes_logo_color_transparent.png" />
    <path
       inkscape:connector-curvature="0"
       id="path73099-4-1-4-6-91-26-5-6-0"
       style="fill:#708090;fill-opacity:1;stroke:none;stroke-width:1.38852;stroke-miterlimit:4;stroke-dasharray:none;stroke-opacity:1"
       d="m 780.86215,51.584689 h 4.57951 c -0.1498,-0.200301 -0.22431,-0.301189 -0.39428,-0.528389 -2.2139,-2.959163 -2.41784,-3.410242 -4.18523,-4.070895 z"
       inkscape:export-xdpi="96"
       inkscape:export-ydpi="96"
       inkscape:export-filename="/home/arnau/Baixades/GHlogo.png" />
    <path
       inkscape:connector-curvature="0"
       id="path73097-3-0-3-5-3-6-8-4-3"
       style="fill:#8fc4c4;fill-opacity:1;stroke:none;stroke-width:1.43791;stroke-miterlimit:4;stroke-dasharray:none;stroke-opacity:1"
       d="m 778.88217,51.813954 v -4.972353 c -0.53675,-0.218671 -1.21351,-0.457708 -2.14419,-0.803411 -3.96044,-1.471136 -3.63544,-1.571629 -3.37549,1.044816 0.14586,1.468161 0.1459,1.468125 -0.41829,2.599993 -0.40638,0.815252 -0.55433,1.304498 -0.62889,2.130955 z"
       inkscape:export-xdpi="96"
       inkscape:export-ydpi="96"
       inkscape:export-filename="/home/arnau/Baixades/GHlogo.png" />
    <path
       inkscape:connector-curvature="0"
       id="path73095-6-3-57-0-6-4-6-2-4"
       style="fill:#b2abbf;fill-opacity:1;stroke:none;stroke-width:1.65175;stroke-miterlimit:4;stroke-dasharray:none;stroke-opacity:1"
       d="m 780.8628,72.310063 h 10.80817 c 0.0557,-1.883077 0.1556,-3.194789 0.38033,-4.54433 0.63307,-3.80164 0.62105,-3.873324 -1.10606,-6.64488 -2.61788,-4.201035 -3.35598,-5.378209 -5.07825,-8.107633 h -5.00419 z"
       inkscape:export-xdpi="96"
       inkscape:export-ydpi="96"
       inkscape:export-filename="/home/arnau/Baixades/GHlogo.png" />
    <path
       inkscape:connector-curvature="0"
       id="path73093-4-8-3-4-1-7-2-7-9"
       style="fill:#e55381;fill-opacity:1;stroke:none;stroke-width:1.60799;stroke-miterlimit:4;stroke-dasharray:none;stroke-opacity:1"
       d="M 778.85583,72.345151 V 53.214392 h -6.91544 c -0.008,0.09669 -0.0157,0.192535 -0.0221,0.297873 -0.0902,1.484217 -0.0901,1.484197 -0.93442,1.826567 -0.80429,0.326143 -0.91516,0.465028 -2.33932,2.933457 -0.13157,0.228059 -0.24689,0.422582 -0.36261,0.617691 v 13.455171 z"
       inkscape:export-xdpi="96"
       inkscape:export-ydpi="96"
       inkscape:export-filename="/home/arnau/Baixades/GHlogo.png" />
    <path
       inkscape:connector-curvature="0"
       id="path73089-9-0-37-6-44-1-9-5-1"
       style="fill:#d9bbaa;fill-opacity:1;stroke:none;stroke-width:1.60533;stroke-miterlimit:4;stroke-dasharray:none;stroke-opacity:1"
       d="m 780.84832,87.676549 h 1.41698 l 9.49191,-8.699524 c 0.0527,-3.291808 0.0119,-1.170888 0.0527,-3.291727 0.009,-0.465458 0.0217,-0.862034 0.0348,-1.261297 h -10.99624 z"
       inkscape:export-xdpi="96"
       inkscape:export-ydpi="96"
       inkscape:export-filename="/home/arnau/Baixades/GHlogo.png" />
    <path
       inkscape:connector-curvature="0"
       id="path73087-9-1-8-6-6-7-7-6-4"
       style="fill:#708090;fill-opacity:1;stroke:none;stroke-width:1.6847;stroke-miterlimit:4;stroke-dasharray:none;stroke-opacity:1"
       d="M 768.31469,89.420055 V 101.89049 L 779.85655,90.814741 V 89.420055 Z"
       inkscape:export-xdpi="96"
       inkscape:export-ydpi="96"
       inkscape:export-filename="/home/arnau/Baixades/GHlogo.png" />
    <path
       inkscape:connector-curvature="0"
       id="path73085-9-5-9-4-3-5-2-4-7"
       style="fill:#bfbfbf;fill-opacity:1;stroke:none;stroke-width:1.54319;stroke-miterlimit:4;stroke-dasharray:none;stroke-opacity:1"
       d="m 768.41567,87.458715 h 10.58218 V 74.435129 h -10.58218 z"
       inkscape:export-xdpi="96"
       inkscape:export-ydpi="96"
       inkscape:export-filename="/home/arnau/Baixades/GHlogo.png" />
    <path
       inkscape:connector-curvature="0"
       id="path73083-9-6-3-0-82-5-7-9-2"
       style="fill:#8fc4c4;fill-opacity:1;stroke:none;stroke-width:1.8185;stroke-miterlimit:4;stroke-dasharray:none;stroke-opacity:1"
       d="m 753.24256,89.316702 v 5.89415 c 0.0727,0.114999 0.30029,0.476411 0.30029,0.476411 l 9.64761,10.424397 3.05717,-3.05616 V 89.316702 Z"
       inkscape:export-xdpi="96"
       inkscape:export-ydpi="96"
       inkscape:export-filename="/home/arnau/Baixades/GHlogo.png" />
    <path
       inkscape:connector-curvature="0"
       id="path73081-9-8-2-7-8-1-0-5-0"
       style="fill:#ffb30f;fill-opacity:1;stroke:none;stroke-width:1.64587;stroke-miterlimit:4;stroke-dasharray:none;stroke-opacity:1"
       d="m 753.24256,87.249645 h 13.14249 V 74.540846 h -6.65541 c -0.0728,0.06352 -0.14734,0.127747 -0.2329,0.199464 -0.58192,0.487778 -1.36692,1.08815 -1.74444,1.334214 -0.68642,0.447402 -0.68626,0.447357 0.68864,2.13112 0.75621,0.926065 1.47365,1.686066 1.59417,1.682701 0.15095,-0.0045 -0.14632,1.101195 -2.18574,1.479759 -1.85321,0.344001 -3.36399,0.677576 -4.60681,0.992695 z"
       inkscape:export-xdpi="96"
       inkscape:export-ydpi="96"
       inkscape:export-filename="/home/arnau/Baixades/GHlogo.png" />
    <path
       inkscape:connector-curvature="0"
       id="path73079-3-1-1-0-8-3-7-0-7"
       style="fill:#8fc4c4;fill-opacity:1;stroke:none;stroke-width:0.961006;stroke-miterlimit:4;stroke-dasharray:none;stroke-opacity:1"
       d="m 749.36038,88.489879 c 0.81501,1.226871 1.7593,2.610063 2.02183,2.994097 v -2.994097 z"
       inkscape:export-xdpi="96"
       inkscape:export-ydpi="96"
       inkscape:export-filename="/home/arnau/Baixades/GHlogo.png" />
    <path
       inkscape:connector-curvature="0"
       id="path73077-0-8-8-1-0-6-78-1-5"
       style="fill:#ffb30f;fill-opacity:1;stroke:none;stroke-width:1.4208;stroke-miterlimit:4;stroke-dasharray:none;stroke-opacity:1"
       d="m 748.90981,87.136666 h 2.98916 v -4.529582 c -4.17398,1.219099 -4.49736,2.132628 -4.49736,2.132628 0,0.09657 0.67121,1.137007 1.5082,2.396954 z"
       inkscape:export-xdpi="96"
       inkscape:export-ydpi="96"
       inkscape:export-filename="/home/arnau/Baixades/GHlogo.png" />
    <g
       id="g2026-5-5-9-2-2"
       style="fill:#000000"
       transform="translate(498.93794,39.356767)">
      <text
         inkscape:export-filename="/home/arnau/Baixades/GHlogo.png"
         inkscape:export-ydpi="96"
         inkscape:export-xdpi="96"
         id="text12787-0-9-1-1-2-7-2-9-5"
         y="29.778751"
         x="301.35632"
         style="font-style:normal;font-weight:normal;font-size:34.6157px;line-height:0;font-family:sans-serif;fill:#000000;fill-opacity:1;stroke:none;stroke-width:0.173079"
         xml:space="preserve"><tspan
           y="29.778751"
           x="301.35632"
           style="font-style:normal;font-variant:normal;font-weight:normal;font-stretch:normal;font-size:34.6157px;line-height:0.75;font-family:'Bebas Neue';-inkscape-font-specification:'Bebas Neue';fill:#bfbfbf;fill-opacity:1;stroke-width:0.173079"
           sodipodi:role="line"
           id="tspan41033-75-0-7-3-4-0-9">cfa</tspan><tspan
           y="55.740524"
           x="301.35632"
           style="font-style:normal;font-variant:normal;font-weight:normal;font-stretch:normal;font-size:34.6157px;line-height:0.75;font-family:'Bebas Neue';-inkscape-font-specification:'Bebas Neue';fill:#000000;fill-opacity:1;stroke-width:0.173079"
           sodipodi:role="line"
           id="tspan1">GUINARD<tspan
   style="fill:#e55381;fill-opacity:1"
   id="tspan2">Ó</tspan></tspan></text>
      <text
         xml:space="preserve"
         style="font-size:7.67835px;line-height:1.25;font-family:'Bebas Neue';-inkscape-font-specification:'Bebas Neue';fill:#000000;stroke-width:0.00115175"
         x="302.23758"
         y="64.013855"
         id="text107672-5-9-33-2-4-3-9"><tspan
           sodipodi:role="line"
           id="tspan107670-4-5-5-8-48-2-1"
           style="fill:#808080;fill-opacity:1;stroke-width:0.00115175"
           x="302.23758"
           y="64.013855">centre de formació de persones adultes</tspan></text>
    </g>
  </g>
</svg>
