<?xml version="1.0" encoding="UTF-8" standalone="no"?>
<!-- Created with Inkscape (http://www.inkscape.org/) -->

<svg
   width="124.79884mm"
   height="127.45417mm"
   viewBox="0 0 124.79884 127.45417"
   version="1.1"
   id="svg115108"
   inkscape:version="1.1.1 (3bf5ae0d25, 2021-09-20)"
   sodipodi:docname="logos.svg"
   xmlns:inkscape="http://www.inkscape.org/namespaces/inkscape"
   xmlns:sodipodi="http://sodipodi.sourceforge.net/DTD/sodipodi-0.dtd"
   xmlns="http://www.w3.org/2000/svg"
   xmlns:svg="http://www.w3.org/2000/svg">
  <sodipodi:namedview
     id="namedview115110"
     pagecolor="#c7e8f5"
     bordercolor="#666666"
     borderopacity="1.0"
     inkscape:pageshadow="2"
     inkscape:pageopacity="0"
     inkscape:pagecheckerboard="0"
     inkscape:document-units="mm"
     showgrid="false"
     inkscape:snap-global="false"
     inkscape:zoom="0.32"
     inkscape:cx="1315.625"
     inkscape:cy="-223.4375"
     inkscape:window-width="1920"
     inkscape:window-height="1017"
     inkscape:window-x="-8"
     inkscape:window-y="-8"
     inkscape:window-maximized="1"
     inkscape:current-layer="layer1"
     inkscape:showpageshadow="2"
     inkscape:deskcolor="#d1d1d1" />
  <defs
     id="defs115105" />
  <g
     inkscape:label="Capa 1"
     inkscape:groupmode="layer"
     id="layer1"
     transform="translate(-783.50698,-274.78649)">
    <g
       id="g2"
       transform="matrix(1.6659104,0,0,1.6659104,-436.78569,17.863616)"
       inkscape:export-filename="..\..\..\Users\araves\Downloads\nomeslogo.png"
       inkscape:export-xdpi="96"
       inkscape:export-ydpi="96">
      <path
         inkscape:connector-curvature="0"
         id="path2492-4-2-5-2-3-1-5-0-1-5-0"
         style="fill:#aed581;fill-opacity:1;stroke:#ffb30f;stroke-width:0;stroke-miterlimit:4;stroke-dasharray:none;stroke-opacity:1"
         d="m 766.19059,189.39175 v -13.99732 c -1.28797,1.97971 -1.75944,2.38122 -2.07742,1.85226 -0.0672,-0.11183 0.21251,-1.24857 0.62154,-2.52618 0.74368,-2.32297 0.74375,-2.3229 0.27745,-3.22652 -0.4421,-0.85677 -0.48493,-0.88626 -0.82604,-0.56891 -0.28121,0.26167 -0.58232,0.30743 -1.37877,0.21046 -1.00378,-0.12221 -1.03059,-0.11106 -1.81609,0.73907 -0.43853,0.47462 -1.06208,0.98284 -1.38552,1.12953 -0.68236,0.30951 -0.59492,0.36124 0.98458,0.5828 1.1717,0.16436 1.17179,0.16453 0.19165,0.46659 -0.91734,0.28271 -1.01784,0.38134 -1.56825,1.54127 -0.32344,0.68165 -0.67774,1.32944 -0.78727,1.43963 -0.13258,0.13338 -0.54191,0.0318 -1.22438,-0.30403 -1.0684,-0.52567 -1.43946,-0.48696 -2.00119,0.20889 -0.37262,0.46157 -1.18019,2.93181 -1.18103,3.61339 -7.2e-4,0.58343 -7.2e-4,0.58345 1.32237,0.47779 0.72773,-0.0581 1.43348,-0.0638 1.56825,-0.0126 0.39838,0.15157 0.28007,1.35735 -0.20559,2.09542 -0.41558,0.63159 -0.52971,0.68488 -1.47046,0.68488 -1.01997,0 -1.02001,-7e-5 -1.01965,0.77557 2.2e-4,0.61344 0.13227,0.90236 0.63135,1.38163 0.54312,0.52162 0.74115,0.5917 1.42124,0.50376 0.43458,-0.0562 0.96648,-0.0267 1.18212,0.0654 0.37661,0.16083 0.32559,0.21031 -0.27724,0.26935 -0.45698,0.0448 -0.44438,0.42696 0.0286,0.87205 1.04224,0.98093 1.83171,0.69687 2.0687,-0.74422 0.14833,-0.90191 0.15394,-0.90719 1.01769,-0.9708 0.586,-0.0431 0.95474,-0.19059 1.13378,-0.45337 0.27967,-0.41049 0.83105,-0.53289 0.83105,-0.18449 0,0.1127 -0.39685,0.59587 -0.88201,1.07379 -0.699,0.68854 -0.88202,1.00784 -0.88202,1.53859 0,0.49023 -0.16177,0.80038 -0.80732,1.46627 z"
         inkscape:export-xdpi="96"
         inkscape:export-ydpi="96"
         inkscape:export-filename="nomes_logo_color_transparent.png" />
      <path
         inkscape:connector-curvature="0"
         id="path73099-4-1-4-6-91-26-5-6-0-0"
         style="fill:#708090;fill-opacity:1;stroke:none;stroke-width:1.38852;stroke-miterlimit:4;stroke-dasharray:none;stroke-opacity:1"
         d="m 780.90846,168.50265 h 4.57951 c -0.1498,-0.2003 -0.22431,-0.30119 -0.39428,-0.52839 -2.2139,-2.95916 -2.41784,-3.41024 -4.18523,-4.0709 z"
         inkscape:export-xdpi="96"
         inkscape:export-ydpi="96"
         inkscape:export-filename="/home/arnau/Baixades/GHlogo.png" />
      <path
         inkscape:connector-curvature="0"
         id="path73097-3-0-3-5-3-6-8-4-3-9"
         style="fill:#8fc4c4;fill-opacity:1;stroke:none;stroke-width:1.43791;stroke-miterlimit:4;stroke-dasharray:none;stroke-opacity:1"
         d="m 778.92848,168.73191 v -4.97235 c -0.53675,-0.21867 -1.21351,-0.45771 -2.14419,-0.80341 -3.96044,-1.47114 -3.63544,-1.57163 -3.37549,1.04482 0.14586,1.46816 0.1459,1.46812 -0.41829,2.59999 -0.40638,0.81525 -0.55433,1.3045 -0.62889,2.13095 z"
         inkscape:export-xdpi="96"
         inkscape:export-ydpi="96"
         inkscape:export-filename="/home/arnau/Baixades/GHlogo.png" />
      <path
         inkscape:connector-curvature="0"
         id="path73095-6-3-57-0-6-4-6-2-4-5"
         style="fill:#b2abbf;fill-opacity:1;stroke:none;stroke-width:1.65175;stroke-miterlimit:4;stroke-dasharray:none;stroke-opacity:1"
         d="m 780.90911,189.22802 h 10.80817 c 0.0557,-1.88307 0.1556,-3.19479 0.38033,-4.54433 0.63307,-3.80164 0.62105,-3.87332 -1.10606,-6.64488 -2.61788,-4.20103 -3.35598,-5.37821 -5.07825,-8.10763 h -5.00419 z"
         inkscape:export-xdpi="96"
         inkscape:export-ydpi="96"
         inkscape:export-filename="/home/arnau/Baixades/GHlogo.png" />
      <path
         inkscape:connector-curvature="0"
         id="path73093-4-8-3-4-1-7-2-7-9-4"
         style="fill:#e55381;fill-opacity:1;stroke:none;stroke-width:1.60799;stroke-miterlimit:4;stroke-dasharray:none;stroke-opacity:1"
         d="m 778.90214,189.26311 v -19.13076 h -6.91544 c -0.008,0.0967 -0.0157,0.19254 -0.0221,0.29787 -0.0902,1.48422 -0.0901,1.4842 -0.93442,1.82657 -0.80429,0.32614 -0.91516,0.46503 -2.33932,2.93346 -0.13157,0.22806 -0.24689,0.42258 -0.36261,0.61769 v 13.45517 z"
         inkscape:export-xdpi="96"
         inkscape:export-ydpi="96"
         inkscape:export-filename="/home/arnau/Baixades/GHlogo.png" />
      <path
         inkscape:connector-curvature="0"
         id="path73089-9-0-37-6-44-1-9-5-1-6"
         style="fill:#d9bbaa;fill-opacity:1;stroke:none;stroke-width:1.60533;stroke-miterlimit:4;stroke-dasharray:none;stroke-opacity:1"
         d="m 780.89463,204.59451 h 1.41698 l 9.49191,-8.69953 c 0.0527,-3.2918 0.0119,-1.17088 0.0527,-3.29172 0.009,-0.46546 0.0217,-0.86204 0.0348,-1.2613 h -10.99624 z"
         inkscape:export-xdpi="96"
         inkscape:export-ydpi="96"
         inkscape:export-filename="/home/arnau/Baixades/GHlogo.png" />
      <path
         inkscape:connector-curvature="0"
         id="path73087-9-1-8-6-6-7-7-6-4-7"
         style="fill:#708090;fill-opacity:1;stroke:none;stroke-width:1.6847;stroke-miterlimit:4;stroke-dasharray:none;stroke-opacity:1"
         d="m 768.361,206.33801 v 12.47044 l 11.54186,-11.07575 v -1.39469 z"
         inkscape:export-xdpi="96"
         inkscape:export-ydpi="96"
         inkscape:export-filename="/home/arnau/Baixades/GHlogo.png" />
      <path
         inkscape:connector-curvature="0"
         id="path73085-9-5-9-4-3-5-2-4-7-1"
         style="fill:#bfbfbf;fill-opacity:1;stroke:none;stroke-width:1.54319;stroke-miterlimit:4;stroke-dasharray:none;stroke-opacity:1"
         d="m 768.46198,204.37667 h 10.58218 v -13.02358 h -10.58218 z"
         inkscape:export-xdpi="96"
         inkscape:export-ydpi="96"
         inkscape:export-filename="/home/arnau/Baixades/GHlogo.png" />
      <path
         inkscape:connector-curvature="0"
         id="path73083-9-6-3-0-82-5-7-9-2-7"
         style="fill:#8fc4c4;fill-opacity:1;stroke:none;stroke-width:1.8185;stroke-miterlimit:4;stroke-dasharray:none;stroke-opacity:1"
         d="m 753.28887,206.23466 v 5.89415 c 0.0727,0.115 0.30029,0.47641 0.30029,0.47641 l 9.64761,10.4244 3.05717,-3.05616 v -13.7388 z"
         inkscape:export-xdpi="96"
         inkscape:export-ydpi="96"
         inkscape:export-filename="/home/arnau/Baixades/GHlogo.png" />
      <path
         inkscape:connector-curvature="0"
         id="path73081-9-8-2-7-8-1-0-5-0-0"
         style="fill:#ffb30f;fill-opacity:1;stroke:none;stroke-width:1.64587;stroke-miterlimit:4;stroke-dasharray:none;stroke-opacity:1"
         d="m 753.28887,204.1676 h 13.14249 v -12.70879 h -6.65541 c -0.0728,0.0635 -0.14734,0.12774 -0.2329,0.19946 -0.58192,0.48778 -1.36692,1.08815 -1.74444,1.33421 -0.68642,0.44741 -0.68626,0.44736 0.68864,2.13112 0.75621,0.92607 1.47365,1.68607 1.59417,1.6827 0.15095,-0.005 -0.14632,1.1012 -2.18574,1.47976 -1.85321,0.344 -3.36399,0.67758 -4.60681,0.9927 z"
         inkscape:export-xdpi="96"
         inkscape:export-ydpi="96"
         inkscape:export-filename="/home/arnau/Baixades/GHlogo.png" />
      <path
         inkscape:connector-curvature="0"
         id="path73079-3-1-1-0-8-3-7-0-7-3"
         style="fill:#8fc4c4;fill-opacity:1;stroke:none;stroke-width:0.961006;stroke-miterlimit:4;stroke-dasharray:none;stroke-opacity:1"
         d="m 749.40669,205.40784 c 0.81501,1.22687 1.7593,2.61006 2.02183,2.9941 v -2.9941 z"
         inkscape:export-xdpi="96"
         inkscape:export-ydpi="96"
         inkscape:export-filename="/home/arnau/Baixades/GHlogo.png" />
      <path
         inkscape:connector-curvature="0"
         id="path73077-0-8-8-1-0-6-78-1-5-1"
         style="fill:#ffb30f;fill-opacity:1;stroke:none;stroke-width:1.4208;stroke-miterlimit:4;stroke-dasharray:none;stroke-opacity:1"
         d="m 748.95612,204.05463 h 2.98916 v -4.52959 c -4.17398,1.2191 -4.49736,2.13263 -4.49736,2.13263 0,0.0966 0.67121,1.13701 1.5082,2.39696 z"
         inkscape:export-xdpi="96"
         inkscape:export-ydpi="96"
         inkscape:export-filename="/home/arnau/Baixades/GHlogo.png" />
    </g>
    <rect
       style="fill:none;fill-opacity:1;stroke:none;stroke-width:1.20165"
       id="rect3"
       width="124.79887"
       height="127.45415"
       x="783.50696"
       y="274.7865" />
    <rect
       style="fill:none;fill-opacity:1;stroke:none;stroke-width:0.264583"
       id="rect4"
       width="60.803818"
       height="98.22155"
       x="814.42035"
       y="275.95578" />
  </g>
</svg>
